<?xml version="1.0" encoding="utf-8"?>
<!-- Generator: Adobe Illustrator 25.0.1, SVG Export Plug-In . SVG Version: 6.00 Build 0)  -->
<svg version="1.1" id="Layer_1" xmlns="http://www.w3.org/2000/svg" xmlns:xlink="http://www.w3.org/1999/xlink" x="0px" y="0px"
	 viewBox="0 0 365.5 226.9" style="enable-background:new 0 0 365.5 226.9;" xml:space="preserve">
<style type="text/css">
	.st0{fill:#FFFFFF;}
</style>
<g id="Layer_1-2">
	<g>
		<g>
			<path class="st0" d="M282.1,135.8c-28.7,0-47.7-22.2-53-30.8c6.8-54.4,26.7-71.6,53-71.6c26,0,46.2,20.8,46.2,51.2
				C328.4,115,308.1,135.8,282.1,135.8 M282.1,0c-46.8,0-73,30.5-80.5,61.9c-8.5-16-14.8-37.4-19.7-57.3h-64.7v80.5
				c0,29.2-13.3,50.8-39.3,50.8S37,114.3,37,85.1l0.3-80.5H0v80.5c0,23.5,7.6,44.8,21.5,60C35.8,160.8,55.3,169,77.9,169
				c45,0,76.4-34.5,76.4-83.9V31c4.7,17.8,15.9,52,37.3,82l-20,113.9h37.9l13.2-80.7c4.3,3.6,8.9,6.8,13.8,9.7
				c12.6,8,27.2,12.5,42.2,13c0,0,2.3,0.1,3.5,0.1c46.4,0,83.3-35.9,83.3-84.4S328.5,0,282.1,0"/>
		</g>
	</g>
</g>
</svg>
